# xmcd
#
# Track frame offsets: 
#        150
#        17700
#        31932
#        48263
#        65478
#        86321
#        102296
#        120061
#        126987
#        143820
#        155011
#        170562
#
# Disc length: 2581 seconds
#
# Revision: 0
# Processed by: cddbd v1.5.2PL0 Copyright (c) Steve Scherf et al.
# Submitted via: ExactAudioCopy v0.95b3
#
DISCID=940a130c
DTITLE=Phonte - Charity Starts At Home
DYEAR=2011
DGENRE=Hip-Hop
TTITLE0=Dance In The Reign
TTITLE1=The Good Fight
TTITLE2=Everything Is Falling Down
TTITLE3=Not Here Anymore
TTITLE4=Eternally
TTITLE5=Sendin My Love
TTITLE6=Ball and Chain
TTITLE7=To Be Yours
TTITLE8=Gonna Be a Beautiful Night
TTITLE9=We Go Off
TTITLE10=The Life of Kings
TTITLE11=Who Loves You More
EXTD=
EXTT0=
EXTT1=
EXTT2=
EXTT3=
EXTT4=
EXTT5=
EXTT6=
EXTT7=
EXTT8=
EXTT9=
EXTT10=
EXTT11=
PLAYORDER=
